<?xml version="1.0" encoding="UTF-8" standalone="no"?><!DOCTYPE svg PUBLIC "-//W3C//DTD SVG 1.1//EN" "http://www.w3.org/Graphics/SVG/1.1/DTD/svg11.dtd"><svg width="100%" height="100%" viewBox="0 0 1043 1043" version="1.1" xmlns="http://www.w3.org/2000/svg" xmlns:xlink="http://www.w3.org/1999/xlink" xml:space="preserve" xmlns:serif="http://www.serif.com/" style="fill-rule:evenodd;clip-rule:evenodd;stroke-linecap:round;stroke-linejoin:round;stroke-miterlimit:2;"><g id="VISIBLE"><path id="LINE" d="M115.014,993.75l718.94,0" style="fill:none;stroke:#000;stroke-width:2.95px;"/><path id="LINE1" serif:id="LINE" d="M833.954,993.75l0,-180.639" style="fill:none;stroke:#000;stroke-width:2.95px;"/><path id="LINE2" serif:id="LINE" d="M833.954,813.111l159.796,0" style="fill:none;stroke:#000;stroke-width:2.95px;"/><path id="LINE3" serif:id="LINE" d="M993.75,115.014l-0,698.097" style="fill:none;stroke:#000;stroke-width:2.95px;"/><path id="ARC" d="M927.604,48.868c-12.252,18.937 -9.611,43.86 6.338,59.808c15.949,15.949 40.871,18.59 59.808,6.338" style="fill:none;stroke:#000;stroke-width:2.95px;"/><path id="LINE4" serif:id="LINE" d="M115.014,48.868l812.59,0" style="fill:none;stroke:#000;stroke-width:2.95px;"/><path id="ARC1" serif:id="ARC" d="M48.868,115.014c18.937,12.252 43.86,9.611 59.808,-6.338c15.949,-15.949 18.59,-40.871 6.338,-59.808" style="fill:none;stroke:#000;stroke-width:2.95px;"/><path id="LINE5" serif:id="LINE" d="M48.868,115.014l-0,812.59" style="fill:none;stroke:#000;stroke-width:2.95px;"/><path id="ARC2" serif:id="ARC" d="M115.014,993.75c12.252,-18.937 9.611,-43.86 -6.338,-59.808c-15.949,-15.949 -40.871,-18.59 -59.808,-6.338" style="fill:none;stroke:#000;stroke-width:2.95px;"/></g></svg>